PathFileType	4	(X/Y/Z)	Patient5_TMGait_0pt45_1_left_04.trc.trc
DataRate	CameraRate	NumFrames	NumMarkers	Units	OrigDataRate	OrigDataStartFrame	OrigNumFrames
58.823529411765	58.823529411765	7	32	mm	58.823529411765	106	       141
Frame#	Time	R.ASIS			L.ASIS			Chest			R.Shoulder			Neck			L.Shoulder			L.Elbow			L.Wrist			R.Elbow			R.Wrist			L.Thigh.Superior			L.Thigh.Lateral			L.Thigh.Inferior			L.Patella			L.Shank.Superior			L.Shank.Lateral			L.Shank.Inferior			L.Heel			L.Midfoot.Lateral			L.Midfoot.Superior			L.Toe			R.Thigh.Superior			R.Thigh.Lateral			R.Thigh.Inferior			R.Patella			R.Shank.Superior			R.Shank.Lateral			R.Shank.Inferior			R.Heel			R.Midfoot.Lateral			R.Midfoot.Superior			R.Toe			
		X1	Y1	Z1	X2	Y2	Z2	X3	Y3	Z3	X4	Y4	Z4	X5	Y5	Z5	X6	Y6	Z6	X7	Y7	Z7	X8	Y8	Z8	X9	Y9	Z9	X10	Y10	Z10	X11	Y11	Z11	X12	Y12	Z12	X13	Y13	Z13	X14	Y14	Z14	X15	Y15	Z15	X16	Y16	Z16	X17	Y17	Z17	X18	Y18	Z18	X19	Y19	Z19	X20	Y20	Z20	X21	Y21	Z21	X22	Y22	Z22	X23	Y23	Z23	X24	Y24	Z24	X25	Y25	Z25	X26	Y26	Z26	X27	Y27	Z27	X28	Y28	Z28	X29	Y29	Z29	X30	Y30	Z30	X31	Y31	Z31	X32	Y32	Z32	

106	6.885000000000	949.099307429336	967.397839978510	599.242232378677	918.212652864110	954.112441782932	363.527205378755	993.902077517324	1430.439748823081	509.404621852457	909.819521416392	1479.678524810939	690.049922198200	857.887188152406	1546.855893305189	512.838358051536	907.288727626239	1507.266941491182	324.058639296084	797.171793431942	1200.565680905007	192.332830619012	899.480472485170	932.577157798260	161.277797432533	855.791285039328	1155.491220414458	831.033654520377	1061.936198960691	966.563085555759	754.054020897599	980.775880442570	757.615224030177	320.257673696948	924.238867806165	677.996874926504	276.448239600965	1020.317208627132	634.339334753528	319.716365183414	1033.045270139901	485.575188155047	308.000187614497	928.920628522453	406.995055826465	337.580028859351	828.006400670149	401.163246412897	267.943716477603	824.095246686906	339.308765134456	355.810567855228	575.434694704931	277.884072420492	367.409469458239	605.962876438307	188.743723184533	308.665744739802	716.448415016321	148.046216111486	346.186075094835	746.025902927374	42.775441493966	353.717822420217	948.384929539648	734.467473977447	611.842841989010	857.076744927319	659.850882254290	663.743674208156	929.250079861898	606.532995413161	583.550484083515	924.921327793147	511.103027454437	606.973677180252	883.588025257527	419.369551435999	565.693670573801	817.974062374643	345.790271988311	645.059388399250	874.410439033695	281.044512354360	557.928738076323	764.266561472592	52.839651068951	507.135135380288	835.390853090282	24.701451064788	587.905232814858	943.211202706511	87.884597787121	572.334057972297	1046.743926302052	44.028500029036	582.961072321848	
107	6.902000000000	947.742554964637	966.832910827590	601.879359257270	916.799643673367	953.970452404975	365.603055430210	994.957420964673	1429.524902606910	509.590809473109	912.905332186085	1478.791753719299	690.875803007394	859.225075379191	1546.322705395445	514.125324316174	906.853474683715	1507.007410810791	325.145368822686	796.527900839070	1199.375310762463	195.223036023076	900.278505052047	932.012605203374	163.708113908772	860.983363020756	1155.598905309809	834.575317995234	1064.314621212638	963.662452255241	757.439654916523	984.391826307297	763.169966923288	322.497639309347	931.114487393309	681.902559246442	277.803237554159	1028.749345637452	641.601170410521	321.514128029963	1046.043218747203	492.313619783570	309.167220266529	942.211725927028	412.148693246551	338.105973083461	841.786144875511	406.081148812582	267.832235520251	837.303507368947	344.111125552501	355.639474856810	588.595680484934	281.119889205428	366.101213628084	620.872617318516	193.272350369076	306.709338670628	731.528752259302	153.585380176838	345.059460177254	762.115719007895	46.261299226320	351.442850783484	944.550712806032	733.521485854796	613.766787005290	852.356975709237	659.708755674675	665.396518382921	923.970124798765	605.711388268708	585.256058148012	918.721209446696	510.416672160325	608.319711945252	876.776960765004	419.390478345739	566.806844893639	810.934148308215	345.975963873025	646.034472774370	867.208014961868	281.113709748286	558.751313178794	756.441938158818	53.007397119323	507.381933521025	827.586764031831	24.733500351013	588.015340248727	935.460075643236	87.867160306085	572.443168997274	1039.004259652109	44.101220226160	582.979671711297	
108	6.919000000000	946.242236653167	966.522475261401	604.565369958947	915.490931576849	954.193767860912	367.455022091782	996.087630334127	1428.853995732572	509.612913357225	915.878400993364	1478.475119854041	691.326680254119	860.725286224099	1546.188273100056	514.892534733800	906.928562839904	1506.808694647885	325.835191194862	796.502312334816	1198.400383132818	197.447588409606	901.410728035982	931.508907196649	165.964554117118	865.623687247748	1156.258946711334	837.453158590121	1066.429044959889	961.624173240940	760.260214774467	987.348456374910	768.813144803725	325.239945931689	937.194463856677	686.214954397705	279.502406199428	1035.907206751174	649.000600227714	323.996728845189	1057.696883788239	499.477813954511	310.804877295379	954.830019646583	417.218644557467	339.027379447912	854.771592286854	410.090523708250	268.304414734958	850.560726274266	347.630529320377	355.786116571152	602.279775452504	279.096028481836	365.341048137285	637.969092968873	193.727852400320	304.948060395543	749.423687728476	157.389960874582	343.695008879256	783.416879140274	50.130758818008	348.527738016674	941.142199954307	732.815740546053	615.631442671482	848.152594179896	659.602516415715	666.784394791511	919.547973964340	605.020521072995	586.905983144596	913.407866422358	509.794042755907	609.631295781987	870.911693630668	419.345107582097	567.823499878482	804.459270099987	346.184684777973	646.790220977432	860.526753917799	281.085563625519	559.490216750116	748.611622745869	53.186779546505	507.612313189053	819.819091790228	24.790891577204	588.093785037554	927.750845889203	87.850446548028	572.557098166549	1031.285375028679	44.167581707514	583.012888691847	
109	6.936000000000	944.672637823990	966.386303238890	607.065410646919	914.267664702627	954.729845679635	369.019144268594	997.309118354552	1428.373777586866	509.556400581041	918.683986698002	1478.698246614445	691.481303259962	862.391206478587	1546.402239558962	515.198740778142	907.588760108438	1506.601890372872	326.177283994281	797.010171823896	1197.669740173468	198.978490064635	902.821634782461	931.101884741446	167.991505959770	869.575066460829	1157.419319615319	839.699960660256	1068.294967087129	960.592869844536	762.447827712933	989.663576388583	774.304115158644	328.212599691273	942.468600329844	690.686008036452	281.344256203511	1041.833510097962	656.248248277958	326.912576754618	1068.067961135663	506.835603281143	312.766519779575	966.895871954566	421.970267341216	340.228685792635	867.095904391590	412.901461299077	269.264492948465	864.064053318654	349.656023756014	356.190985351539	616.995302970983	271.996077848667	365.119042411972	657.293203696501	190.220445272680	303.378564025549	770.024339066084	159.219814075257	342.069595522032	809.430054773079	53.870490964883	344.938338566632	938.098217017656	732.280539432097	617.310013242675	844.364927724072	659.532736033529	667.867495066601	915.758858468445	604.405239827009	588.372331245609	908.740153753331	509.218117060421	610.794271557593	865.748859249059	419.250390208262	568.672906257372	798.423891416722	346.422224564597	647.319579125579	854.240222865914	280.988300132927	560.107721335329	740.779039104877	53.359333183936	507.805196116069	812.093476455505	24.860440486562	588.137390916255	920.069259121961	87.835888779008	572.678151778908	1023.586362396585	44.222017376798	583.054370305708	
110	6.953000000000	943.100562983984	966.327507997942	609.172578167600	913.133017821432	955.486033095843	370.256507116089	998.625787657073	1428.011900663988	509.481755006231	921.267119136659	1479.360696667258	691.417456164386	864.204641522794	1546.858801164473	515.119752353855	908.830143940576	1506.309188512554	326.228016357738	797.965000626509	1197.144983818259	199.837159086910	904.446492091159	930.770461600155	169.727498111271	872.758063057422	1158.963746005715	841.389859060557	1069.940495156980	960.593104091615	763.986697850270	991.363567346125	779.413532737826	331.163699904445	946.943599202623	695.054918831523	283.130018042548	1046.593121728163	663.061063457658	330.010148312351	1077.211646181883	514.140014304236	314.900604460794	978.520347058673	426.219927123756	341.590189777851	878.916036748380	414.299394149660	270.589789042985	878.003439549828	350.101788469805	356.779315192910	633.325162951662	260.294193734993	365.390865321409	678.880509414521	183.115915573203	301.990865847956	793.129618910610	159.018187484877	340.186760187284	839.399396475696	57.080028101580	340.691014622016	935.270284758178	731.823741476058	618.699026926006	840.826071519488	659.490122543091	668.643726006040	912.288813556096	603.810949337044	589.558065639853	904.410109693977	508.670597343368	611.732421063049	860.961445478539	419.126997771021	569.318331895567	792.637890346308	346.690832548554	647.643579871280	848.173155563560	280.856740527798	560.591623010550	732.949396371340	53.507557699922	507.950727784787	804.403692047452	24.928642721906	588.151684726114	912.392718044141	87.824114230159	572.813010312617	1015.899925095156	44.261133883938	583.098343451554	
111	6.970000000000	941.559758426679	966.247666348073	610.746478267062	912.116631146644	956.338159567894	371.162861300715	1000.035993738549	1427.689583179513	509.418530781759	923.589010384205	1480.310663153532	691.201974664790	866.136458314345	1547.419010967598	514.737956995767	910.580576981065	1505.859173573961	326.043012560465	799.286402435912	1196.735057563837	200.094273076408	906.223969653055	930.448518312224	171.116320565838	875.150608500813	1160.729489684159	842.611423151258	1071.398789241293	961.529933249208	764.917340275950	992.479403289038	783.930590561753	333.899701893461	950.635961216612	699.071987502734	284.691308270489	1050.254552278135	669.170909522377	333.071637067189	1085.148263383181	521.140942631959	317.054733237015	989.771823504608	429.841177042189	342.985268851510	890.374062209426	414.166473779047	272.147648578785	892.533102762753	349.001913123789	357.459129333686	651.837295886219	244.672006263089	366.093612331080	702.766119109177	172.946559192618	300.780762775980	818.505825263466	156.905596106259	338.065444963324	872.487512744511	59.556241057979	335.850451124373	932.471813361678	731.355253971611	619.737961306224	837.342019267374	659.459084773674	669.140263820646	908.816831109366	603.197463190673	590.412852629776	900.117134880924	508.136256678022	612.415550356484	856.224049725968	418.995481670068	569.757417668811	786.896307524710	346.987053675578	647.797161826413	842.147955914751	280.724466957548	560.951402651230	725.133244615804	53.617778947594	508.051454421110	796.733887892311	24.986376550833	588.148230894510	904.700757176133	87.811889075067	572.964954383164	1008.215168246945	44.285329081479	583.141908758075	
112	6.987000000000	940.038964347890	966.053147109872	611.731138160881	911.267019329635	957.142962849436	371.769374884646	1001.539833339922	1427.331286797846	509.366198102354	925.640180174101	1481.370907979638	690.882018757694	868.159354467507	1547.938646607940	514.128056935565	912.729647841771	1505.199368315414	325.668688636419	800.902916170219	1196.321411708827	199.861477342914	908.104358056324	930.046705203208	172.115672853747	876.782493240195	1162.531798321885	843.441282737807	1072.699899795790	963.204171895420	765.330395128449	993.043918402387	787.666775633353	336.297049097900	953.559027932609	702.510988200634	285.914332930815	1052.877227610333	674.329355511042	335.929204903070	1091.850999726006	527.598586970520	319.086977434747	1000.658361078787	432.762428141703	344.289264286432	901.583637969374	412.481382752692	273.809908668294	907.757679025236	346.495177926222	358.130117039916	673.016482351885	225.950070292883	367.156896124465	728.988111772129	160.337825735441	299.754518892531	845.934699422449	153.148516453307	335.733840230040	907.907734895450	61.296471673785	330.530661878652	929.532931463396	730.806040027803	620.423747477756	833.735366128992	659.422898493317	669.401018886154	905.091135634920	602.547066033921	590.941615278348	895.627009774364	507.602795830521	612.857228492697	851.283062829580	418.869811752492	570.014875478278	781.024633571216	347.302819506007	647.815881195364	836.023466767300	280.616789161011	561.210689341464	717.346040913672	53.682932160662	508.118787565565	789.065593612826	25.030452937107	588.139227833886	896.982306259824	87.791466840718	573.129336173255	1000.520472638709	44.299582805956	583.186061828999	
